<?xml version="1.0" encoding="UTF-8"?>
<svg xmlns="http://www.w3.org/2000/svg" xmlns:xlink="http://www.w3.org/1999/xlink" width="454pt" height="417pt" viewBox="0 0 454 417" version="1.1">
<g id="surface1">
<path style=" stroke:none;fill-rule:evenodd;fill:rgb(0%,65.098572%,31.399536%);fill-opacity:1;" d="M 225.261719 0.710938 L 280.078125 156.28125 L 453.402344 156.675781 L 316.503906 254.890625 L 369.671875 413.546875 L 230.242188 318.675781 L 89.78125 416.339844 L 140.511719 259.488281 L 0.53125 161.191406 L 171.3125 159.125 L 225.261719 0.710938 "/>
<path style=" stroke:none;fill-rule:evenodd;fill:rgb(100%,100%,100%);fill-opacity:1;" d="M 180.703125 272.796875 C 180.703125 272.621094 180.703125 272.621094 180.398438 272.621094 C 180.398438 272.492188 180.398438 272.40625 180.398438 272.316406 C 180.003906 272.230469 179.609375 272.1875 179.21875 272.144531 C 178.605469 271.574219 177.644531 271.355469 177.425781 270.484375 C 177.292969 270.484375 177.203125 270.484375 177.117188 270.484375 C 176.679688 269.695313 176.417969 269.519531 176.113281 268.515625 C 175.980469 268.515625 175.894531 268.515625 175.804688 268.515625 C 175.542969 268.035156 175.542969 268.035156 175.457031 267.378906 C 175.324219 267.378906 175.238281 267.378906 175.148438 267.378906 C 174.886719 266.417969 174.230469 265.238281 174.054688 264.449219 C 174.449219 261.085938 174.710938 260.339844 174.710938 259.203125 C 175.058594 258.375 175.058594 258.375 175.101563 257.675781 C 175.757813 257.238281 175.847656 256.1875 176.019531 255.402344 C 176.0625 255.445313 176.109375 255.488281 176.195313 255.574219 C 176.324219 254.921875 176.71875 254.089844 176.589844 253.433594 C 177.15625 253.257813 178.46875 251.203125 178.292969 250.636719 C 178.597656 250.328125 178.683594 250.109375 178.730469 249.671875 C 178.816406 249.628906 178.945313 249.585938 179.078125 249.539063 C 179.296875 248.753906 179.515625 247.96875 179.777344 247.222656 C 179.820313 247.269531 179.863281 247.3125 179.953125 247.398438 C 180.171875 246.613281 180.433594 245.824219 180.695313 245.082031 C 180.78125 245.082031 180.914063 245.082031 181.042969 245.082031 C 181.042969 244.6875 181.089844 244.296875 181.132813 243.902344 C 181.261719 243.855469 181.394531 243.8125 181.523438 243.769531 C 181.65625 242.589844 182.265625 241.585938 182.746094 240.492188 C 182.789063 240.492188 182.878906 240.535156 182.964844 240.578125 C 182.921875 240.402344 182.878906 240.273438 182.878906 240.140625 C 183.578125 239.660156 184.058594 238.785156 184.144531 238.042969 C 184.234375 238.042969 184.320313 238.042969 184.453125 238.042969 C 184.40625 237.910156 184.363281 237.78125 184.320313 237.648438 C 184.40625 237.605469 184.496094 237.5625 184.625 237.5625 C 184.886719 236.25 184.886719 236.25 185.28125 235.417969 C 184.976563 235.421875 184.976563 235.421875 184.976563 235.242188 C 185.105469 235.242188 185.28125 235.242188 185.457031 235.242188 C 185.5 234.851563 185.542969 234.457031 185.628906 234.105469 C 185.851563 234.105469 186.066406 234.105469 186.285156 234.105469 C 186.328125 232.96875 186.328125 232.96875 186.59375 231.964844 C 186.8125 231.964844 187.027344 231.964844 187.246094 231.964844 C 187.289063 231.441406 187.335938 230.960938 187.421875 230.476563 C 187.507813 230.476563 187.597656 230.476563 187.726563 230.476563 C 187.726563 230.261719 187.726563 230.039063 187.726563 229.820313 C 187.816406 229.820313 187.945313 229.820313 188.078125 229.820313 C 188.121094 229.605469 188.164063 229.386719 188.253906 229.164063 C 188.121094 229.121094 187.988281 229.078125 187.902344 229.035156 C 187.988281 229.035156 188.121094 229.035156 188.253906 229.035156 C 188.296875 228.859375 188.382813 228.730469 188.46875 228.597656 C 188.382813 228.511719 188.296875 228.421875 188.25 228.335938 C 188.382813 228.292969 188.558594 228.25 188.734375 228.203125 C 188.90625 227.285156 189.519531 226.542969 189.691406 225.582031 C 189.78125 225.582031 189.910156 225.582031 190.042969 225.582031 C 190.085938 225.449219 190.128906 225.316406 190.175781 225.1875 C 190.261719 225.144531 190.390625 225.101563 190.523438 225.101563 C 190.523438 224.183594 191.003906 223.4375 191.136719 222.5625 C 191.265625 222.476563 191.398438 222.390625 191.527344 222.347656 C 191.527344 222.171875 191.527344 222.039063 191.527344 221.90625 C 192.050781 221.515625 192.578125 221.164063 193.144531 220.816406 C 193.40625 219.679688 193.886719 218.847656 194.238281 217.492188 C 194.367188 217.449219 194.5 217.402344 194.632813 217.359375 C 194.675781 217.097656 194.71875 216.835938 194.804688 216.574219 C 194.9375 216.574219 195.109375 216.574219 195.285156 216.574219 C 195.417969 215.699219 196.683594 214.429688 196.464844 213.730469 C 196.554688 213.6875 196.640625 213.644531 196.769531 213.601563 C 196.726563 213.25 196.683594 212.902344 196.640625 212.59375 C 197.472656 212.332031 199.347656 208.398438 199.523438 207.523438 C 199.742188 207.523438 199.960938 207.523438 200.179688 207.523438 C 200.441406 206.867188 200.441406 206.867188 200.441406 206.210938 C 201.097656 205.25 201.097656 205.25 201.183594 204.898438 C 201.269531 204.898438 201.359375 204.898438 201.488281 204.898438 C 201.535156 204.550781 201.578125 204.242188 201.664063 203.9375 C 201.753906 203.9375 201.882813 203.9375 202.015625 203.9375 C 202.015625 203.238281 202.320313 202.671875 202.625 202.058594 C 202.714844 202.015625 202.84375 201.96875 202.976563 201.96875 C 202.976563 201.578125 203.238281 201.488281 203.542969 201.355469 C 203.542969 200.175781 204.199219 199.085938 204.765625 198.078125 C 205.160156 196.242188 206.734375 193.488281 206.339844 191.78125 C 206.730469 190.121094 206.816406 188.722656 206.773438 186.972656 C 206.640625 186.886719 206.554688 186.800781 206.46875 186.753906 C 206.730469 185.925781 206.554688 182.601563 205.636719 181.988281 C 205.636719 181.117188 205.066406 180.460938 204.628906 179.671875 C 204.496094 179.671875 204.367188 179.671875 204.277344 179.671875 C 204.277344 178.492188 203.1875 178.363281 202.96875 177.355469 C 202.660156 177.269531 202.398438 177.226563 202.136719 177.183594 C 202.09375 177.007813 202.050781 176.832031 202.003906 176.65625 C 198.59375 175.261719 195.445313 174.648438 191.820313 175.742188 C 191.6875 175.785156 191.601563 175.828125 191.511719 175.875 C 190.726563 176.136719 189.152344 176.488281 188.714844 177.1875 C 188.628906 177.230469 188.628906 177.230469 188.890625 177.449219 C 188.105469 177.976563 187.753906 178.234375 187.097656 179.109375 C 186.96875 179.066406 186.835938 179.023438 186.746094 179.023438 C 186.835938 179.199219 186.921875 179.371094 187.011719 179.546875 C 186.53125 179.941406 186.53125 179.941406 186.269531 180.421875 C 186.136719 180.378906 186.007813 180.335938 185.917969 180.335938 C 185.917969 180.46875 185.917969 180.640625 185.917969 180.816406 C 185.742188 180.816406 185.570313 180.816406 185.4375 180.816406 C 185.175781 181.296875 184.914063 181.558594 184.433594 181.648438 C 184.257813 182.390625 184.082031 183.132813 183.953125 183.921875 C 183.820313 183.921875 183.734375 183.921875 183.648438 183.921875 C 183.601563 184.226563 183.601563 184.574219 183.601563 184.925781 C 182.902344 185.277344 182.203125 187.199219 181.898438 187.855469 C 181.898438 188.117188 181.898438 188.382813 181.898438 188.6875 C 181.941406 188.597656 181.988281 188.554688 182.074219 188.511719 C 182.074219 189.167969 181.464844 191.398438 181.070313 191.789063 C 181.246094 192.359375 181.246094 192.359375 181.15625 193.585938 C 180.984375 193.585938 180.808594 193.628906 180.632813 193.671875 C 180.503906 194.371094 180.460938 194.5 180.632813 195.246094 C 180.546875 195.246094 180.460938 195.289063 180.414063 195.332031 C 180.195313 196.382813 180.023438 197.429688 179.847656 198.523438 C 179.847656 198.742188 179.890625 198.960938 179.9375 199.179688 C 179.980469 199.09375 180.023438 199.046875 180.109375 199.003906 C 180.109375 199.222656 180.109375 199.441406 180.109375 199.660156 C 180.023438 199.574219 179.980469 199.527344 179.9375 199.484375 C 179.761719 199.835938 179.761719 199.835938 179.71875 200.796875 C 179.675781 200.972656 179.675781 201.148438 179.675781 201.320313 C 179.585938 201.367188 179.5 201.410156 179.410156 201.453125 C 179.761719 201.714844 179.761719 201.714844 179.894531 201.671875 C 179.894531 201.847656 179.894531 202.019531 179.894531 202.238281 C 179.761719 202.195313 179.628906 202.152344 179.542969 202.109375 C 179.542969 202.894531 179.632813 203.375 179.367188 204.074219 C 179.457031 204.074219 179.589844 204.074219 179.71875 204.074219 C 179.675781 204.207031 179.632813 204.382813 179.589844 204.558594 C 179.457031 204.511719 179.324219 204.46875 179.195313 204.425781 C 179.71875 205.210938 179.238281 206.175781 179.371094 207.050781 C 179.152344 207.003906 178.933594 207.007813 178.757813 207.007813 C 178.800781 207.136719 178.84375 207.265625 178.890625 207.398438 C 178.976563 207.398438 179.0625 207.398438 179.195313 207.398438 C 179.0625 209.148438 178.757813 210.765625 178.539063 212.46875 C 178.410156 212.46875 178.320313 212.46875 178.234375 212.46875 C 178.234375 212.558594 178.234375 212.644531 178.234375 212.777344 C 178.320313 212.777344 178.410156 212.777344 178.539063 212.777344 C 178.410156 213.386719 178.324219 214 178.234375 214.65625 C 178.148438 214.65625 178.0625 214.65625 177.972656 214.65625 C 178.019531 215.050781 178.019531 215.050781 178.191406 215.269531 C 178.0625 215.269531 177.929688 215.269531 177.84375 215.269531 C 177.800781 216.492188 177.800781 216.492188 177.972656 217.0625 C 177.800781 217.933594 177.015625 219.902344 177.230469 220.820313 C 177.058594 220.820313 176.882813 220.820313 176.753906 220.820313 C 176.664063 222.4375 176.359375 224.230469 175.921875 225.761719 C 175.792969 225.761719 175.703125 225.761719 175.617188 225.761719 C 175.527344 225.761719 175.441406 225.804688 175.398438 225.847656 C 175.355469 226.066406 175.3125 226.285156 175.265625 226.546875 C 175.136719 226.546875 175.050781 226.546875 174.960938 226.546875 C 174.65625 228.121094 174 229.609375 173.828125 231.140625 C 173.652344 231.140625 173.476563 231.140625 173.300781 231.140625 C 173.128906 232.449219 172.691406 232.976563 172.820313 234.285156 C 172.734375 234.59375 172.691406 234.898438 172.648438 235.246094 C 172.515625 235.25 172.429688 235.25 172.339844 235.25 C 172.078125 235.90625 172.078125 235.90625 171.992188 236.734375 C 171.859375 236.734375 171.773438 236.734375 171.6875 236.734375 C 171.554688 236.734375 171.425781 236.734375 171.335938 236.734375 C 171.335938 236.953125 171.335938 237.171875 171.335938 237.390625 C 171.074219 237.433594 170.8125 237.480469 170.550781 237.566406 C 170.375 238.265625 170.375 238.265625 170.375 239.007813 C 170.199219 239.007813 170.027344 239.007813 169.894531 239.007813 C 169.851563 239.273438 169.808594 239.578125 169.765625 239.882813 C 169.632813 239.925781 169.5 239.96875 169.371094 240.015625 C 169.066406 240.890625 169.066406 240.890625 169.066406 241.503906 C 168.363281 242.636719 167.140625 242.898438 166.441406 243.949219 C 165.613281 244.214844 164.914063 245 164.300781 245.566406 C 163.820313 246.179688 163.078125 246.574219 162.8125 247.230469 C 162.640625 247.230469 162.464844 247.230469 162.335938 247.230469 C 162.335938 247.316406 162.335938 247.40625 162.335938 247.535156 C 161.023438 247.535156 158.792969 248.457031 157.570313 248.9375 C 156.257813 249.8125 153.152344 249.8125 151.539063 250.03125 C 151.539063 249.902344 151.535156 249.769531 151.535156 249.683594 C 148.082031 249.683594 145.371094 249.507813 142.007813 248.550781 C 142.007813 248.417969 142.007813 248.285156 142.007813 248.199219 C 141.789063 248.242188 141.570313 248.285156 141.351563 248.375 C 141.175781 248.109375 141.042969 247.894531 140.914063 247.675781 C 140.738281 247.675781 140.605469 247.675781 140.476563 247.675781 C 139.777344 246.976563 138.945313 246.671875 138.070313 246.234375 C 138.070313 246.101563 138.070313 246.015625 138.070313 245.925781 C 137.589844 245.707031 137.109375 245.535156 136.976563 245.054688 C 136.847656 245.007813 136.714844 244.964844 136.585938 244.921875 C 136.539063 244.703125 136.496094 244.484375 136.453125 244.265625 C 136.320313 244.265625 136.191406 244.265625 136.101563 244.265625 C 136.101563 244.136719 136.101563 244.046875 136.101563 243.960938 C 134.265625 243.347656 133.390625 241.121094 132.820313 239.371094 C 132.691406 239.371094 132.605469 239.371094 132.515625 239.371094 C 132.558594 239.152344 132.605469 238.933594 132.648438 238.714844 C 132.515625 238.714844 132.429688 238.714844 132.339844 238.714844 C 132.429688 237.753906 132.515625 236.3125 133.476563 235.828125 C 133.390625 235.742188 133.347656 235.699219 133.300781 235.65625 C 133.433594 235.566406 133.566406 235.523438 133.695313 235.480469 C 134.046875 234.429688 135.617188 234.824219 136.054688 234.167969 C 136.753906 234.300781 137.5 234.429688 138.242188 234.605469 C 138.285156 234.691406 138.328125 234.777344 138.371094 234.910156 C 138.589844 234.910156 138.808594 234.910156 139.070313 234.910156 C 139.464844 235.695313 139.902344 236.089844 140.691406 236.394531 C 141.128906 237.53125 142.308594 238.101563 142.835938 239.191406 C 143.3125 239.367188 143.796875 239.542969 144.320313 239.761719 C 144.234375 239.804688 144.1875 239.847656 144.144531 239.9375 C 144.363281 239.9375 144.582031 239.980469 144.800781 240.023438 C 144.800781 240.152344 144.800781 240.328125 144.800781 240.503906 C 144.886719 240.503906 144.976563 240.503906 145.105469 240.503906 C 145.105469 240.589844 145.105469 240.722656 145.109375 240.855469 C 145.371094 240.898438 145.632813 240.941406 145.9375 240.984375 C 145.9375 241.070313 145.9375 241.203125 145.9375 241.335938 C 146.679688 241.464844 147.46875 241.640625 148.253906 241.8125 C 148.253906 241.902344 148.253906 242.03125 148.253906 242.164063 C 148.996094 242.164063 152.671875 242.6875 153.503906 242.074219 C 155.425781 241.855469 156.910156 240.761719 158.746094 240.5 C 158.746094 239.625 160.757813 239.492188 161.371094 239.1875 C 161.367188 239.011719 161.367188 238.835938 161.367188 238.707031 C 161.804688 238.574219 162.242188 238.09375 162.8125 237.875 C 162.855469 237.65625 162.898438 237.4375 162.984375 237.21875 C 163.203125 237.175781 163.421875 237.132813 163.6875 237.085938 C 163.730469 236.824219 163.773438 236.605469 163.816406 236.386719 C 164.515625 236.039063 165.085938 234.246094 165.433594 233.457031 C 165.519531 233.457031 165.652344 233.457031 165.78125 233.457031 C 165.914063 232.539063 165.914063 232.539063 166.21875 231.753906 C 166.351563 231.710938 166.480469 231.664063 166.613281 231.664063 C 166.65625 230.484375 166.65625 230.484375 166.917969 229.347656 C 167.007813 229.347656 167.136719 229.347656 167.269531 229.347656 C 167.3125 228.5625 167.398438 227.820313 167.484375 227.074219 C 167.878906 226.375 168.140625 225.851563 168.230469 225.109375 C 168.578125 225.109375 168.578125 225.109375 168.578125 224.933594 C 168.402344 224.933594 168.230469 224.933594 168.054688 224.933594 C 168.535156 224.101563 168.707031 223.097656 168.882813 222.132813 C 168.96875 222.089844 169.058594 222.046875 169.1875 222.003906 C 169.1875 218.023438 170.367188 214.046875 170.671875 210.066406 C 171.414063 209.71875 171.414063 203.902344 171.628906 202.722656 C 171.71875 202.679688 171.847656 202.636719 171.980469 202.636719 C 172.023438 201.675781 172.066406 200.714844 172.109375 199.792969 C 172.285156 199.75 172.460938 199.707031 172.636719 199.664063 C 172.414063 198.703125 172.242188 197.914063 172.328125 196.863281 C 172.414063 196.863281 172.503906 196.863281 172.636719 196.863281 C 172.632813 194.855469 172.328125 193.019531 173.199219 191.136719 C 173.460938 189.476563 174.203125 187.945313 174.554688 186.328125 C 174.683594 186.285156 174.816406 186.242188 174.949219 186.242188 C 174.597656 182.832031 177.523438 179.726563 178.527344 176.710938 C 178.746094 176.578125 178.964844 176.492188 179.230469 176.402344 C 179.273438 176.226563 179.316406 176.054688 179.359375 175.878906 C 179.445313 175.878906 179.578125 175.878906 179.710938 175.878906 C 179.710938 175.179688 181.152344 174.347656 181.5 173.996094 C 181.414063 173.910156 181.371094 173.867188 181.324219 173.824219 C 182.464844 173.605469 183.25 172.597656 183.773438 171.636719 C 184.34375 171.375 185.433594 171.109375 185.609375 170.5 C 186.570313 170.238281 187.402344 169.753906 188.230469 169.492188 C 188.230469 169.363281 188.273438 169.230469 188.320313 169.144531 C 192.035156 168.136719 195.050781 167.742188 198.855469 167.523438 C 198.855469 167.609375 198.855469 167.742188 198.855469 167.871094 C 199.773438 167.914063 200.691406 167.960938 201.652344 168.003906 C 201.652344 168.089844 201.652344 168.222656 201.652344 168.351563 C 202.222656 168.394531 202.832031 168.4375 203.445313 168.527344 C 204.144531 169.96875 206.15625 169.488281 206.898438 170.972656 C 206.988281 170.972656 207.117188 170.972656 207.25 170.972656 C 207.25 171.058594 207.25 171.148438 207.25 171.277344 C 207.378906 171.277344 207.554688 171.277344 207.730469 171.277344 C 207.730469 171.453125 207.730469 171.628906 207.730469 171.804688 C 208.300781 171.976563 208.605469 172.503906 208.953125 172.9375 C 210.09375 173.59375 210.355469 173.855469 210.660156 175.082031 C 210.746094 175.082031 210.878906 175.082031 211.011719 175.082031 C 211.140625 175.476563 211.753906 176.042969 211.972656 176.4375 C 212.148438 176.4375 212.320313 176.480469 212.496094 176.523438 C 212.496094 176.394531 212.496094 176.304688 212.539063 176.21875 C 212.933594 176.394531 212.890625 177.003906 212.980469 177.355469 C 213.066406 177.355469 213.152344 177.355469 213.285156 177.355469 C 213.328125 177.617188 213.371094 177.878906 213.414063 178.140625 C 213.546875 178.097656 213.679688 178.054688 213.808594 178.007813 C 213.808594 178.269531 213.808594 178.535156 213.808594 178.839844 C 213.894531 178.839844 213.984375 178.839844 214.117188 178.839844 C 214.507813 180.457031 214.507813 180.457031 214.597656 181.636719 C 214.683594 181.636719 214.816406 181.636719 214.945313 181.636719 C 214.859375 182.160156 214.816406 182.6875 214.773438 183.253906 C 214.902344 183.253906 215.078125 183.253906 215.253906 183.253906 C 215.253906 183.558594 215.253906 183.910156 215.253906 184.261719 C 215.339844 184.261719 215.472656 184.261719 215.605469 184.261719 C 215.605469 184.609375 215.605469 185.003906 215.605469 185.394531 C 215.691406 185.441406 215.820313 185.484375 215.953125 185.527344 C 215.910156 185.789063 215.910156 186.054688 215.910156 186.359375 C 215.910156 186.445313 215.910156 186.578125 215.910156 186.707031 C 215.691406 186.707031 215.472656 186.707031 215.253906 186.710938 C 215.253906 186.796875 215.253906 186.882813 215.253906 187.015625 C 215.167969 187.058594 215.078125 187.101563 214.992188 187.144531 C 214.992188 188.324219 214.992188 189.460938 214.773438 190.644531 C 214.6875 190.644531 214.644531 190.644531 214.601563 190.644531 C 214.601563 191.121094 214.601563 191.121094 214.46875 191.121094 C 214.46875 190.816406 214.46875 190.816406 214.292969 190.816406 C 214.207031 192.261719 214.207031 192.261719 213.945313 193.265625 C 213.945313 193.355469 213.945313 193.441406 213.945313 193.570313 C 214.03125 193.570313 214.164063 193.570313 214.296875 193.570313 C 214.296875 193.964844 214.296875 194.359375 214.296875 194.753906 C 214.164063 194.753906 214.03125 194.753906 213.945313 194.753906 C 214.164063 195.800781 213.335938 196.546875 213.117188 197.417969 C 213.027344 197.332031 212.941406 197.246094 212.898438 197.199219 C 212.855469 197.421875 212.808594 197.640625 212.808594 197.855469 C 212.898438 197.855469 213.027344 197.855469 213.160156 197.855469 C 213.160156 197.945313 213.160156 198.03125 213.160156 198.164063 C 213.03125 198.164063 212.898438 198.164063 212.8125 198.164063 C 212.636719 198.863281 212.460938 199.5625 212.328125 200.304688 C 212.199219 200.304688 212.066406 200.304688 211.980469 200.304688 C 211.761719 200.871094 211.761719 200.871094 211.851563 201.441406 C 211.675781 201.441406 211.5 201.441406 211.324219 201.441406 C 211.019531 202.753906 210.144531 203.890625 209.882813 205.070313 C 209.710938 205.113281 209.535156 205.160156 209.402344 205.203125 C 209.445313 205.550781 209.269531 205.726563 209.054688 206.863281 C 208.835938 206.90625 208.617188 206.949219 208.398438 207.039063 C 208.398438 207.300781 208.398438 207.5625 208.398438 207.871094 C 208.265625 207.871094 208.136719 207.871094 208.046875 207.871094 C 207.917969 208.175781 207.828125 208.480469 207.742188 208.832031 C 207.609375 208.832031 207.480469 208.832031 207.394531 208.832031 C 206.738281 210.363281 205.949219 211.453125 205.601563 213.117188 C 204.902344 214.210938 204.902344 214.210938 204.773438 214.734375 C 204.597656 214.777344 204.421875 214.820313 204.289063 214.910156 C 203.855469 215.609375 203.242188 216.484375 203.460938 217.359375 C 203.328125 217.359375 203.199219 217.402344 203.066406 217.445313 C 202.589844 219.0625 201.539063 220.375 201.1875 221.949219 C 201.058594 221.949219 200.929688 221.992188 200.839844 222.035156 C 200.796875 222.167969 200.753906 222.300781 200.710938 222.472656 C 200.097656 222.867188 199.660156 223.828125 199.53125 224.574219 C 199.398438 224.574219 199.3125 224.574219 199.222656 224.574219 C 199.136719 224.964844 199.09375 225.359375 199.050781 225.753906 C 198.917969 225.796875 198.828125 225.839844 198.742188 225.882813 C 198.132813 226.234375 198.21875 227.152344 198.089844 227.71875 C 197.957031 227.722656 197.824219 227.722656 197.738281 227.722656 C 197.824219 228.113281 197.824219 228.113281 197.5625 228.855469 C 197.433594 228.859375 197.34375 228.859375 197.257813 228.859375 C 196.515625 230.824219 196.515625 230.824219 196.429688 231.480469 C 196.253906 231.480469 196.078125 231.480469 195.945313 231.480469 C 195.683594 231.875 195.683594 232.226563 195.730469 232.660156 C 194.984375 233.011719 194.769531 234.671875 194.636719 235.414063 C 194.507813 235.503906 194.375 235.589844 194.242188 235.679688 C 194.246094 236.507813 193.71875 237.164063 193.324219 237.863281 C 193.152344 237.863281 192.976563 237.863281 192.84375 237.863281 C 192.757813 238.738281 192.101563 239.21875 191.882813 240.050781 C 191.097656 240.445313 190.835938 241.449219 190.703125 242.28125 C 190.09375 242.675781 189.699219 243.417969 189.875 244.117188 C 189.132813 245.253906 189.089844 245.691406 188.914063 247.046875 C 188.738281 247.046875 188.5625 247.046875 188.390625 247.046875 C 188.34375 247.570313 188.300781 248.140625 188.257813 248.707031 C 188.171875 248.578125 188.128906 248.445313 188.082031 248.359375 C 187.953125 248.359375 187.820313 248.359375 187.734375 248.359375 C 187.734375 248.445313 187.734375 248.578125 187.734375 248.707031 C 187.515625 248.707031 187.296875 248.707031 187.078125 248.710938 C 187.078125 249.976563 186.640625 250.761719 186.421875 251.988281 C 186.292969 251.988281 186.203125 251.988281 186.117188 251.988281 C 186.074219 252.160156 186.03125 252.382813 185.984375 252.597656 C 185.855469 252.554688 185.722656 252.511719 185.636719 252.46875 C 185.550781 252.992188 185.507813 253.519531 185.464844 254.085938 C 185.332031 254.085938 185.199219 254.085938 185.113281 254.085938 C 184.894531 255.09375 184.71875 255.265625 184.457031 256.710938 C 184.328125 256.710938 184.238281 256.710938 184.152344 256.710938 C 183.410156 258.675781 182.621094 260.339844 183.324219 262.480469 C 183.191406 262.480469 183.105469 262.523438 183.019531 262.566406 C 183.453125 263.96875 184.765625 264.972656 184.984375 266.238281 C 185.203125 266.238281 185.421875 266.238281 185.640625 266.238281 C 185.640625 266.328125 185.640625 266.414063 185.640625 266.546875 C 188.175781 267.199219 190.886719 266.804688 192.855469 264.839844 C 194.121094 264.835938 195.300781 259.898438 195.476563 259.023438 C 195.5625 259.023438 195.648438 259.023438 195.78125 259.023438 C 195.78125 258.71875 195.78125 258.453125 195.78125 258.191406 C 195.867188 258.191406 196 258.191406 196.128906 258.191406 C 196.261719 254.648438 196.871094 255.570313 200.0625 255.480469 C 200.28125 255.566406 200.503906 255.65625 200.722656 255.742188 C 200.9375 258.191406 200.851563 261.074219 202.035156 263.261719 C 201.902344 263.261719 201.773438 263.261719 201.683594 263.261719 C 201.683594 263.4375 201.683594 263.609375 201.683594 263.785156 C 201.773438 263.785156 201.902344 263.828125 202.035156 263.871094 C 202.078125 264.046875 202.121094 264.222656 202.164063 264.441406 C 202.253906 264.441406 202.386719 264.441406 202.515625 264.441406 C 202.558594 264.660156 202.601563 264.878906 202.648438 265.097656 C 202.734375 265.140625 202.867188 265.183594 202.996094 265.226563 C 202.996094 265.316406 202.996094 265.445313 202.996094 265.578125 C 203.214844 265.621094 203.433594 265.664063 203.652344 265.753906 C 203.652344 265.839844 203.652344 265.925781 203.652344 266.058594 C 204.308594 266.101563 204.964844 266.144531 205.621094 266.230469 C 206.625 266.230469 207.542969 266.011719 208.503906 265.75 C 208.941406 265.269531 208.941406 265.269531 209.378906 265.09375 C 209.46875 265.09375 209.597656 265.09375 209.730469 265.09375 C 209.816406 264.746094 209.902344 264.394531 210.035156 264.089844 C 210.429688 263.476563 210.820313 262.863281 211.214844 262.296875 C 211.082031 262.296875 210.953125 262.296875 210.863281 262.296875 C 211.257813 261.597656 211.476563 260.941406 211.652344 260.109375 C 212 259.894531 212.089844 259.761719 212.175781 259.324219 C 212.046875 259.324219 211.957031 259.324219 211.871094 259.324219 C 211.871094 258.929688 211.914063 258.535156 211.957031 258.144531 C 212.785156 257.574219 212.742188 256.089844 212.742188 255.082031 C 213.703125 254.121094 217.113281 254.730469 218.339844 254.730469 C 218.339844 254.773438 218.382813 254.816406 218.425781 254.90625 C 218.339844 255.648438 218.296875 256.4375 218.25 257.222656 C 218.296875 257.265625 218.382813 257.308594 218.46875 257.355469 C 218.425781 257.746094 218.425781 258.140625 218.425781 258.535156 C 218.296875 258.535156 218.207031 258.578125 218.121094 258.621094 C 218.164063 258.796875 218.210938 258.972656 218.253906 259.191406 C 218.339844 259.191406 218.425781 259.191406 218.558594 259.1875 C 218.558594 259.410156 218.558594 259.628906 218.558594 259.84375 C 218.425781 259.84375 218.339844 259.84375 218.253906 259.84375 C 218.253906 260.414063 218.253906 261.027344 218.253906 261.636719 C 218.429688 261.636719 218.429688 261.636719 218.429688 261.289063 C 218.515625 261.289063 218.601563 261.289063 218.734375 261.289063 C 218.6875 261.636719 218.644531 261.988281 218.601563 262.335938 C 218.734375 262.382813 218.90625 262.425781 219.085938 262.46875 C 219.566406 263.605469 220.003906 264.042969 221.183594 264.261719 C 221.796875 264.214844 222.40625 264.171875 223.019531 264.171875 C 224.328125 263.515625 224.328125 263.515625 224.8125 263.429688 C 225.289063 263.164063 225.289063 263.164063 226.121094 263.121094 C 226.121094 262.945313 226.121094 262.773438 226.121094 262.597656 C 226.210938 262.597656 226.296875 262.597656 226.429688 262.597656 C 226.472656 262.246094 226.515625 261.941406 226.601563 261.636719 C 227.828125 261.023438 228.304688 254.816406 228.085938 253.765625 C 229.222656 253.765625 230.359375 253.808594 231.539063 253.851563 C 231.539063 253.765625 231.539063 253.675781 231.539063 253.589844 C 232.414063 253.632813 233.289063 253.675781 234.164063 253.761719 C 234.207031 254.683594 234.296875 255.601563 234.382813 256.5625 C 234.425781 256.476563 234.46875 256.429688 234.558594 256.386719 C 234.515625 257.042969 234.472656 257.699219 234.472656 258.355469 C 234.601563 258.398438 234.734375 258.441406 234.863281 258.484375 C 234.820313 258.660156 234.820313 258.835938 234.820313 259.007813 C 234.6875 259.007813 234.558594 259.007813 234.472656 259.007813 C 234.472656 259.097656 234.472656 259.183594 234.472656 259.316406 C 234.558594 259.316406 234.691406 259.316406 234.820313 259.316406 C 234.820313 259.402344 234.820313 259.535156 234.820313 259.664063 C 234.90625 259.710938 235.039063 259.753906 235.171875 259.796875 C 235.214844 260.496094 235.214844 260.496094 235.609375 261.9375 C 235.785156 261.9375 235.960938 261.9375 236.132813 261.9375 C 236.175781 262.464844 236.222656 263.03125 236.265625 263.601563 C 236.570313 263.644531 236.921875 263.6875 237.269531 263.773438 C 237.3125 263.816406 237.359375 263.859375 237.445313 263.90625 C 238.015625 265.085938 239.589844 264.777344 240.722656 264.734375 C 242.472656 264.425781 244.089844 262.636719 244.308594 260.972656 C 244.394531 260.972656 244.527344 260.972656 244.65625 260.972656 C 244.65625 260.800781 244.699219 260.625 244.746094 260.449219 C 244.875 260.40625 245.007813 260.359375 245.136719 260.316406 C 245.660156 258.132813 245.53125 255.816406 245.964844 253.585938 C 246.273438 253.585938 246.273438 253.585938 246.273438 253.410156 C 247.191406 253.410156 248.109375 253.410156 249.070313 253.410156 C 249.070313 253.453125 249.070313 253.496094 249.070313 253.585938 C 249.289063 253.585938 249.507813 253.585938 249.726563 253.585938 C 249.726563 253.671875 249.726563 253.800781 249.726563 253.933594 C 249.8125 253.933594 249.945313 253.976563 250.074219 254.019531 C 250.121094 254.195313 250.164063 254.371094 250.207031 254.589844 C 250.074219 254.589844 249.988281 254.589844 249.902344 254.589844 C 249.902344 254.675781 249.902344 254.765625 249.902344 254.894531 C 250.46875 255.15625 250.46875 255.15625 250.558594 255.070313 C 250.601563 255.199219 250.644531 255.375 250.6875 255.550781 C 250.558594 255.550781 250.558594 255.550781 250.558594 257.210938 C 250.6875 257.210938 250.863281 257.210938 251.039063 257.210938 C 250.953125 258.128906 250.691406 259.484375 251.871094 259.484375 C 252 260.183594 252.132813 260.925781 252.308594 261.671875 C 252.394531 261.714844 252.527344 261.757813 252.660156 261.800781 C 252.746094 262.589844 252.746094 262.589844 253.007813 263.113281 C 253.359375 263.15625 253.753906 263.199219 254.144531 263.242188 C 254.449219 263.332031 254.800781 263.460938 255.152344 263.59375 C 255.152344 263.679688 255.152344 263.769531 255.152344 263.898438 C 255.9375 263.941406 256.769531 263.984375 257.597656 264.074219 C 259.085938 263.984375 259.085938 263.984375 259.914063 263.722656 C 259.960938 263.503906 260.003906 263.285156 260.046875 263.109375 C 260.308594 262.761719 260.570313 262.453125 260.832031 262.148438 C 261.007813 262.148438 261.183594 262.148438 261.359375 262.148438 C 261.359375 261.886719 261.359375 261.621094 261.355469 261.359375 C 262.449219 260.660156 262.1875 257.472656 262.359375 256.027344 C 262.230469 256.027344 262.097656 256.027344 262.011719 256.027344 C 261.925781 254.890625 261.75 254.714844 261.703125 254.234375 C 261.574219 254.277344 261.441406 254.320313 261.3125 254.367188 C 261.441406 252.75 260.828125 251.832031 260.699219 250.300781 C 260.566406 250.300781 260.480469 250.300781 260.390625 250.300781 C 260.347656 248.945313 260.128906 248.550781 259.210938 247.765625 C 259.558594 247.414063 258.554688 245.054688 258.421875 244.574219 C 258.292969 244.574219 258.160156 244.574219 258.074219 244.574219 C 257.984375 244.179688 257.941406 243.832031 257.898438 243.480469 C 257.722656 243.394531 257.546875 243.308594 257.417969 243.265625 C 257.242188 241.90625 256.980469 241.078125 256.277344 239.898438 C 256.324219 239.8125 256.367188 239.765625 256.453125 239.722656 C 256.324219 239.503906 256.191406 239.328125 256.105469 239.15625 C 255.972656 239.15625 255.886719 239.15625 255.796875 239.15625 C 255.796875 238.542969 254.789063 236.140625 254.484375 235.878906 C 254.484375 235.527344 254.484375 235.222656 254.484375 234.914063 C 254.308594 234.914063 254.136719 234.914063 253.960938 234.914063 C 253.828125 234.476563 253.566406 234.171875 253.480469 233.429688 C 253.304688 232.992188 253.304688 232.992188 253.085938 231.285156 C 252.777344 230.632813 252.429688 230.238281 252.339844 229.496094 C 252.210938 229.496094 252.078125 229.496094 251.992188 229.496094 C 251.859375 228.183594 250.941406 226.785156 250.460938 225.5625 C 250.371094 225.605469 250.285156 225.648438 250.199219 225.734375 C 250.152344 225.472656 250.109375 225.210938 250.109375 224.992188 C 249.976563 224.949219 249.890625 224.90625 249.804688 224.90625 C 249.761719 224.773438 249.714844 224.640625 249.714844 224.554688 C 249.847656 223.550781 249.367188 222.71875 249.539063 221.800781 C 249.367188 221.800781 249.191406 221.800781 249.058594 221.800781 C 248.753906 220.710938 247.660156 218.480469 247.921875 217.34375 C 247.789063 217.34375 247.660156 217.34375 247.570313 217.34375 C 247.308594 216.773438 247.046875 216.25 246.828125 215.726563 C 246.742188 215.769531 246.695313 215.8125 246.652344 215.898438 C 246.476563 215.332031 246.304688 214.808594 246.128906 214.28125 C 245.996094 214.328125 245.867188 214.371094 245.777344 214.414063 C 245.429688 213.320313 245.078125 212.230469 244.773438 211.136719 C 244.597656 211.136719 244.421875 211.136719 244.289063 211.136719 C 244.289063 209.738281 243.414063 208.6875 242.804688 207.378906 C 242.671875 207.378906 242.585938 207.378906 242.496094 207.378906 C 242.320313 206.765625 242.148438 206.152344 242.015625 205.539063 C 241.886719 205.539063 241.753906 205.542969 241.664063 205.542969 C 241.183594 204.535156 241.097656 204.054688 241.011719 202.917969 C 240.789063 202.917969 240.570313 202.917969 240.355469 202.917969 C 240.355469 202.789063 240.355469 202.699219 240.355469 202.613281 C 240.441406 202.613281 240.570313 202.613281 240.703125 202.613281 C 240.660156 202.132813 240.484375 201.738281 240.046875 201.605469 C 240.046875 201.257813 240.046875 200.953125 240.046875 200.644531 C 239.871094 200.644531 239.699219 200.644531 239.523438 200.644531 C 239.128906 197.671875 239.128906 197.671875 239.214844 197.191406 C 239.039063 197.191406 238.863281 197.191406 238.734375 197.191406 C 238.558594 196.753906 238.558594 196.753906 238.382813 196.710938 C 238.035156 195.050781 237.726563 193.390625 237.421875 191.730469 C 237.289063 191.683594 237.160156 191.640625 237.070313 191.597656 C 237.070313 190.765625 237.113281 190.152344 236.894531 189.324219 C 236.984375 189.324219 237.113281 189.324219 237.246094 189.324219 C 237.15625 188.753906 237.113281 188.1875 237.070313 187.664063 C 237.59375 187.398438 237.113281 185.914063 237.070313 185.390625 C 237.550781 184.90625 237.59375 183.203125 237.722656 182.414063 C 238.640625 181.496094 238.683594 179.835938 239.382813 178.65625 C 239.601563 178.65625 239.820313 178.65625 240.039063 178.65625 C 240.257813 177.738281 240.605469 176.996094 240.695313 176.03125 C 241.699219 175.726563 241.832031 175.113281 242.265625 174.195313 C 242.398438 174.152344 242.53125 174.109375 242.660156 174.066406 C 242.660156 173.933594 242.660156 173.847656 242.660156 173.757813 C 242.746094 173.757813 242.835938 173.757813 242.96875 173.757813 C 243.011719 173.585938 243.054688 173.410156 243.097656 173.277344 C 243.183594 173.320313 243.316406 173.363281 243.445313 173.410156 C 243.492188 173.234375 243.535156 173.058594 243.578125 172.882813 C 243.710938 172.839844 243.839844 172.796875 243.972656 172.753906 C 244.015625 172.535156 244.058594 172.316406 244.101563 172.097656 C 244.628906 171.964844 244.671875 171.570313 244.757813 171.136719 C 245.371094 170.914063 245.71875 170.390625 246.417969 170.214844 C 246.464844 170.085938 246.507813 169.953125 246.59375 169.824219 C 246.898438 169.691406 247.25 169.605469 247.601563 169.515625 C 247.644531 169.386719 247.6875 169.253906 247.730469 169.167969 C 248.648438 168.902344 249.304688 168.378906 250.179688 167.984375 C 250.179688 167.855469 250.179688 167.765625 250.179688 167.679688 C 250.484375 167.679688 250.835938 167.679688 251.183594 167.679688 C 251.183594 167.546875 251.183594 167.417969 251.183594 167.328125 C 252.320313 167.152344 253.71875 166.933594 254.59375 166.191406 C 256.648438 166.015625 258.746094 165.839844 260.84375 165.710938 C 262.59375 166.015625 264.34375 166.320313 266.089844 166.667969 C 266.089844 166.757813 266.089844 166.886719 266.089844 167.019531 C 266.394531 167.019531 266.703125 167.019531 267.054688 167.019531 C 267.054688 167.148438 267.054688 167.324219 267.054688 167.5 C 267.710938 167.5 267.925781 167.367188 268.539063 167.671875 C 268.671875 167.847656 268.671875 167.847656 269.851563 167.980469 C 269.851563 168.066406 269.851563 168.199219 269.851563 168.328125 C 270.15625 168.371094 270.507813 168.414063 270.855469 168.503906 C 270.855469 168.589844 270.855469 168.679688 270.855469 168.808594 C 271.6875 168.941406 272.167969 169.464844 272.300781 170.296875 C 272.386719 170.296875 272.519531 170.296875 272.648438 170.296875 C 272.824219 170.820313 273.128906 170.601563 273.128906 171.257813 C 273.347656 171.257813 273.566406 171.257813 273.785156 171.257813 C 273.785156 171.476563 273.785156 171.695313 273.785156 171.910156 C 273.875 171.910156 274.007813 171.910156 274.136719 171.910156 C 274.136719 172.175781 274.179688 172.480469 274.222656 172.785156 C 274.355469 172.828125 274.484375 172.871094 274.617188 172.917969 C 274.617188 173.003906 274.617188 173.09375 274.617188 173.222656 C 275.40625 173.53125 276.277344 174.273438 276.105469 175.191406 C 276.324219 175.191406 276.542969 175.191406 276.761719 175.191406 C 276.761719 175.277344 276.761719 175.40625 276.761719 175.539063 C 277.023438 175.628906 277.285156 175.714844 277.546875 175.84375 C 277.546875 176.019531 277.546875 176.195313 277.546875 176.371094 C 277.679688 176.371094 277.808594 176.414063 277.941406 176.457031 C 277.984375 176.632813 278.027344 176.808594 278.074219 177.023438 C 278.203125 177.023438 278.378906 177.023438 278.554688 177.023438 C 278.640625 177.726563 278.730469 178.425781 278.859375 179.121094 C 278.992188 179.167969 279.121094 179.210938 279.253906 179.253906 C 279.867188 180.828125 280.4375 183.625 280.21875 185.242188 C 280.304688 185.285156 280.394531 185.332031 280.523438 185.375 C 280.4375 185.855469 280.394531 186.335938 280.347656 186.859375 C 280.4375 186.859375 280.566406 186.859375 280.699219 186.859375 C 280.828125 189.527344 281.007813 192.195313 281.183594 194.859375 C 281.050781 194.859375 280.921875 194.859375 280.832031 194.859375 C 281.007813 195.34375 281.183594 195.824219 281.402344 196.347656 C 281.183594 197.835938 281.097656 199.320313 281.054688 200.804688 C 281.140625 200.894531 281.230469 200.980469 281.359375 201.070313 C 281.40625 206.839844 281.273438 208.71875 281.40625 209.070313 C 281.363281 209.199219 281.363281 209.332031 281.363281 209.460938 C 281.449219 209.417969 281.582031 209.375 281.710938 209.332031 C 281.667969 209.636719 281.667969 209.941406 281.667969 210.292969 C 281.363281 210.292969 281.363281 210.292969 281.363281 210.46875 C 281.449219 210.46875 281.539063 210.46875 281.667969 210.46875 C 281.757813 211.867188 281.886719 213.265625 282.019531 214.710938 C 282.109375 214.710938 282.195313 214.710938 282.324219 214.710938 C 282.28125 215.015625 282.238281 215.363281 282.238281 215.714844 C 282.152344 215.757813 282.0625 215.800781 282.019531 215.890625 C 282.5 216.371094 282.152344 217.417969 282.503906 218.160156 C 282.371094 218.160156 282.238281 218.160156 282.152344 218.160156 C 282.195313 219.210938 282.632813 220.261719 282.503906 221.265625 C 282.589844 221.265625 282.679688 221.265625 282.808594 221.265625 C 282.808594 221.964844 283.070313 222.359375 283.378906 222.925781 C 283.289063 223.84375 283.246094 224.761719 283.203125 225.726563 C 283.6875 226.03125 283.859375 226.117188 283.992188 226.6875 C 284.121094 226.773438 284.296875 226.859375 284.472656 226.949219 C 284.296875 227.035156 284.121094 227.167969 283.992188 227.296875 C 284.648438 228.390625 285.128906 230.226563 285.4375 231.449219 C 285.523438 231.449219 285.652344 231.449219 285.785156 231.449219 C 285.785156 231.582031 285.785156 231.757813 285.785156 231.933594 C 285.871094 231.933594 285.960938 231.933594 286.09375 231.933594 C 286.09375 232.0625 286.09375 232.238281 286.09375 232.410156 C 286.265625 232.410156 286.441406 232.410156 286.617188 232.410156 C 286.660156 232.9375 286.921875 233.460938 287.402344 233.59375 C 287.445313 233.8125 287.492188 234.03125 287.578125 234.246094 C 288.277344 234.246094 288.496094 234.816406 288.714844 235.382813 C 289.023438 235.382813 289.371094 235.382813 289.722656 235.382813 C 289.722656 235.515625 289.722656 235.691406 289.722656 235.863281 C 290.027344 235.910156 290.335938 235.953125 290.683594 236.039063 C 290.683594 236.171875 290.683594 236.34375 290.683594 236.519531 C 291.207031 236.5625 291.777344 236.605469 292.34375 236.695313 C 294.136719 237.261719 294.136719 237.261719 294.3125 237.4375 C 295.84375 237.4375 297.371094 237.4375 298.902344 237.433594 C 301 236.910156 302.925781 235.859375 304.980469 235.683594 C 304.980469 235.554688 304.980469 235.464844 304.980469 235.378906 C 305.941406 235.246094 305.765625 234.808594 306.378906 234.242188 C 306.550781 234.285156 306.726563 234.328125 306.945313 234.371094 C 306.988281 234.109375 307.03125 233.847656 307.074219 233.628906 C 307.46875 233.367188 307.949219 233.234375 308.082031 232.753906 C 308.34375 232.667969 308.605469 232.621094 308.910156 232.578125 C 308.910156 232.359375 308.910156 232.140625 308.953125 231.925781 C 309 231.96875 309.042969 232.011719 309.128906 232.097656 C 311.011719 230.21875 313.019531 228.511719 316.125 228.816406 C 316.605469 228.992188 317.085938 229.164063 317.566406 229.382813 C 317.566406 229.472656 317.566406 229.5625 317.566406 229.648438 C 317.871094 229.734375 318.222656 229.820313 318.570313 229.953125 C 318.617188 230.214844 318.703125 230.476563 318.789063 230.785156 C 318.792969 232.3125 318.660156 235.722656 316.824219 236.160156 C 316.695313 236.378906 316.5625 236.597656 316.433594 236.859375 C 316.125 236.859375 314.726563 238.304688 314.640625 238.652344 C 313.941406 238.871094 313.8125 239.484375 312.980469 239.617188 C 312.628906 240.316406 311.449219 241.101563 310.707031 241.277344 C 310.707031 241.367188 310.707031 241.453125 310.707031 241.585938 C 310.226563 241.671875 309.613281 242.066406 308.390625 242.503906 C 308.390625 242.589844 308.390625 242.679688 308.390625 242.765625 C 306.511719 243.378906 306.511719 243.378906 303.800781 244.644531 C 302.054688 244.910156 300.480469 245.214844 298.730469 245.304688 C 296.457031 245.785156 293.613281 245.304688 291.34375 245.132813 C 291.296875 245 291.253906 244.914063 291.210938 244.824219 C 288.542969 244.390625 286.140625 242.90625 283.648438 241.941406 C 283.648438 241.8125 283.648438 241.679688 283.648438 241.59375 C 283.429688 241.59375 283.210938 241.59375 282.992188 241.59375 C 282.992188 241.464844 282.992188 241.375 282.992188 241.285156 C 282.859375 241.285156 282.773438 241.285156 282.683594 241.285156 C 282.683594 241.15625 282.683594 241.027344 282.683594 240.9375 C 282.378906 240.808594 282.117188 240.71875 281.855469 240.632813 C 281.8125 240.5 281.765625 240.371094 281.722656 240.238281 C 281.199219 240.238281 279.097656 237.136719 278.792969 236.699219 C 278.574219 236.128906 278.398438 235.5625 278.222656 235.035156 C 278.09375 235.035156 278.003906 235.035156 277.917969 235.035156 C 277.699219 234.46875 277.480469 233.902344 277.304688 233.378906 C 277.171875 233.332031 277.042969 233.289063 276.910156 233.246094 C 276.210938 230.140625 274.941406 226.953125 274.722656 223.761719 C 274.023438 222.359375 274.371094 221.09375 274.371094 219.476563 C 274.285156 219.519531 274.238281 219.5625 274.195313 219.652344 C 274.152344 219.519531 274.152344 219.390625 274.152344 219.300781 C 274.238281 219.300781 274.328125 219.300781 274.457031 219.300781 C 274.285156 218.164063 274.371094 214.929688 273.714844 214.054688 C 273.625 213.398438 273.539063 212.742188 273.492188 212.085938 C 273.582031 212.085938 273.667969 212.085938 273.800781 212.085938 C 272.882813 209.769531 273.054688 204.523438 273.882813 202.164063 C 273.710938 198.492188 273.53125 198.140625 273.398438 193.421875 C 272.742188 188 272.742188 188 272.828125 187.648438 C 272.394531 187.476563 272.480469 187.300781 272.566406 186.863281 C 272.042969 186.339844 272.128906 185.597656 272.085938 184.894531 C 271.5625 183.496094 271.5625 183.496094 271.167969 181.925781 C 271.035156 181.925781 270.949219 181.925781 270.859375 181.925781 C 270.859375 181.574219 270.859375 181.269531 270.859375 180.964844 C 270.730469 180.964844 270.597656 180.964844 270.511719 180.964844 C 270.421875 180.613281 270.378906 180.261719 270.335938 179.957031 C 270.203125 179.957031 270.117188 179.957031 270.03125 179.957031 C 270.03125 179.214844 269.066406 178.210938 268.71875 177.511719 C 268.585938 177.511719 268.453125 177.511719 268.367188 177.511719 C 268.324219 177.378906 268.28125 177.246094 268.234375 177.117188 C 268.019531 177.027344 267.800781 176.941406 267.582031 176.855469 C 267.230469 175.804688 265.4375 175.105469 264.433594 174.886719 C 264.433594 174.757813 264.433594 174.625 264.433594 174.539063 C 259.839844 173.535156 256.082031 173.230469 251.796875 175.503906 C 251.753906 175.59375 251.710938 175.722656 251.667969 175.855469 C 251.535156 175.855469 251.40625 175.855469 251.316406 175.855469 C 251.316406 175.941406 251.316406 176.070313 251.316406 176.203125 C 251.144531 176.289063 250.96875 176.378906 250.792969 176.464844 C 250.75 176.640625 250.707031 176.816406 250.664063 177.035156 C 248.738281 178.128906 247.648438 181.144531 247.253906 183.242188 C 247.078125 183.285156 246.902344 183.332031 246.773438 183.375 C 246.640625 185.125 246.339844 186.261719 246.074219 189.628906 C 246.207031 189.671875 246.339844 189.714844 246.46875 189.757813 C 246.511719 189.890625 246.558594 190.019531 246.601563 190.152344 C 246.46875 190.105469 246.339844 190.0625 246.207031 190.019531 C 246.164063 190.152344 246.121094 190.28125 246.078125 190.457031 C 246.164063 190.457031 246.296875 190.457031 246.425781 190.457031 C 246.339844 191.289063 246.339844 191.289063 246.734375 194.390625 C 246.820313 194.390625 246.953125 194.390625 247.085938 194.390625 C 247.476563 195.703125 247.476563 195.703125 247.652344 197.015625 C 248.484375 198.019531 249.226563 199.503906 249.359375 200.773438 C 249.488281 200.816406 249.664063 200.859375 249.839844 200.902344 C 249.839844 201.605469 250.101563 202.214844 250.191406 202.914063 C 250.410156 202.914063 250.628906 202.914063 250.847656 202.914063 C 250.976563 203.570313 251.066406 204.75 251.851563 205.011719 C 251.851563 205.976563 252.113281 206.324219 252.335938 207.199219 C 252.464844 207.199219 252.640625 207.199219 252.816406 207.199219 C 252.726563 207.59375 252.726563 207.59375 252.988281 208.335938 C 253.078125 208.335938 253.164063 208.335938 253.296875 208.335938 C 253.339844 208.554688 253.382813 208.773438 253.472656 208.992188 C 253.558594 208.992188 253.691406 208.992188 253.820313 208.992188 C 253.820313 209.429688 253.820313 209.863281 253.820313 210.300781 C 253.953125 210.300781 254.128906 210.300781 254.300781 210.300781 C 254.300781 210.738281 254.304688 211.175781 254.304688 211.613281 C 254.390625 211.613281 254.476563 211.613281 254.609375 211.613281 C 254.960938 212.882813 255.570313 213.929688 255.921875 215.242188 C 256.007813 215.242188 256.140625 215.242188 256.269531 215.242188 C 256.3125 215.460938 256.359375 215.679688 256.445313 215.898438 C 256.53125 215.898438 256.664063 215.941406 256.796875 215.984375 C 256.796875 216.597656 256.839844 216.988281 256.578125 217.515625 C 256.664063 217.515625 256.796875 217.515625 256.925781 217.515625 C 256.925781 217.601563 256.925781 217.734375 256.925781 217.863281 C 258.675781 218.648438 258.371094 221.972656 259.464844 223.414063 C 259.464844 224.332031 260.121094 225.121094 260.210938 226.039063 C 260.339844 226.082031 260.472656 226.125 260.644531 226.171875 C 260.644531 226.386719 260.644531 226.605469 260.691406 226.867188 C 260.777344 226.867188 260.910156 226.867188 261.039063 226.867188 C 261.085938 227.347656 261.128906 227.828125 261.171875 228.355469 C 261.257813 228.355469 261.390625 228.355469 261.519531 228.355469 C 261.519531 228.574219 261.519531 228.792969 261.519531 229.011719 C 261.609375 229.011719 261.738281 229.054688 261.871094 229.097656 C 262.089844 229.796875 262.089844 229.796875 262.046875 230.320313 C 262.132813 230.367188 262.222656 230.410156 262.351563 230.453125 C 262.351563 230.671875 262.351563 230.890625 262.351563 231.109375 C 262.441406 231.109375 262.527344 231.109375 262.660156 231.109375 C 262.703125 231.371094 262.746094 231.632813 262.835938 231.9375 C 262.921875 231.9375 263.007813 231.9375 263.140625 231.9375 C 263.140625 232.464844 263.140625 233.03125 263.140625 233.601563 C 263.226563 233.601563 263.359375 233.601563 263.488281 233.601563 C 263.753906 235.175781 265.152344 235.566406 264.976563 237.359375 C 265.066406 237.359375 265.152344 237.359375 265.285156 237.359375 C 265.328125 237.710938 265.371094 238.101563 265.460938 238.496094 C 265.546875 238.496094 265.632813 238.496094 265.765625 238.496094 C 265.765625 238.84375 265.765625 239.238281 265.765625 239.632813 C 265.941406 239.632813 265.941406 239.632813 266.203125 239.152344 C 266.378906 240.898438 266.945313 242.5625 267.429688 244.222656 C 268.171875 244.570313 268.261719 245.753906 268.304688 246.539063 C 269.222656 248.066406 269.222656 248.066406 269.527344 249.03125 C 269.703125 249.074219 269.878906 249.117188 270.054688 249.160156 C 270.054688 249.25 270.054688 249.335938 270.054688 249.46875 C 269.835938 249.46875 269.617188 249.46875 269.398438 249.46875 C 269.441406 249.597656 269.484375 249.730469 269.527344 249.902344 C 269.617188 249.859375 269.703125 249.816406 269.789063 249.816406 C 269.878906 250.253906 269.964844 250.691406 270.054688 251.128906 C 270.140625 251.128906 270.230469 251.128906 270.359375 251.128906 C 270.359375 251.433594 270.359375 251.785156 270.402344 252.132813 C 270.492188 252.179688 270.578125 252.222656 270.710938 252.265625 C 270.710938 252.703125 270.710938 253.140625 270.710938 253.574219 C 270.796875 253.574219 270.886719 253.574219 271.015625 253.574219 C 271.28125 255.980469 271.105469 258.253906 271.019531 260.613281 C 271.105469 260.613281 271.238281 260.613281 271.367188 260.613281 C 271.367188 260.789063 271.367188 260.964844 271.367188 261.140625 C 271.238281 261.140625 271.105469 261.183594 270.976563 261.226563 C 270.277344 262.933594 270.277344 262.933594 270.320313 263.28125 C 269.445313 263.71875 269.664063 263.980469 269.402344 264.898438 C 269.269531 264.898438 269.140625 264.898438 269.054688 264.898438 C 268.835938 265.382813 268.617188 265.863281 268.398438 266.386719 C 268.265625 266.386719 268.179688 266.386719 268.09375 266.386719 C 268.003906 266.691406 267.960938 267 267.917969 267.347656 C 267.347656 267.4375 266.605469 267.699219 266.605469 268.355469 C 265.601563 268.792969 264.246094 269.273438 263.152344 269.492188 C 263.152344 269.578125 263.152344 269.664063 263.152344 269.796875 C 262.148438 269.886719 260.179688 270.015625 259.394531 270.542969 C 257.90625 270.5 256.421875 270.457031 254.976563 270.457031 C 254.539063 270.367188 254.101563 270.28125 253.664063 270.238281 C 253.664063 269.976563 253.664063 269.976563 253.492188 269.976563 C 253.492188 269.890625 253.492188 269.84375 253.492188 269.800781 C 253.316406 269.800781 253.140625 269.800781 253.011719 269.800781 C 253.011719 269.671875 253.011719 269.582031 253.011719 269.496094 C 252.835938 269.496094 252.660156 269.496094 252.527344 269.496094 C 252.527344 269.363281 252.527344 269.234375 252.527344 269.144531 C 251.742188 268.972656 249.644531 268.535156 249.382813 267.703125 C 249.207031 267.703125 249.03125 267.703125 248.898438 267.703125 C 248.898438 267.53125 248.898438 267.355469 248.898438 267.179688 C 248.113281 267.179688 247.371094 267.179688 246.628906 267.179688 C 246.234375 268.449219 244.617188 268.625 243.828125 269.585938 C 242.824219 269.9375 241.820313 270.285156 240.855469 270.636719 C 240.855469 270.722656 240.855469 270.855469 240.855469 270.984375 C 238.976563 271.160156 235.261719 271.816406 233.820313 270.375 C 233.164063 270.15625 232.507813 269.984375 231.851563 269.808594 C 231.808594 269.675781 231.765625 269.546875 231.71875 269.460938 C 231.019531 269.328125 230.363281 269.195313 229.710938 269.066406 C 229.226563 269.414063 229.226563 269.414063 228.089844 269.679688 C 228.09375 270.421875 227.4375 270.726563 226.78125 270.640625 C 226.78125 270.726563 226.78125 270.859375 226.78125 270.988281 C 226.648438 270.988281 226.519531 270.988281 226.429688 270.988281 C 226.386719 271.078125 226.34375 271.210938 226.300781 271.339844 C 225.078125 271.691406 224.113281 272.390625 222.847656 272.609375 C 222.847656 272.695313 222.847656 272.828125 222.847656 272.960938 C 220.484375 272.960938 219.21875 272.347656 217.425781 271.039063 C 217.25 270.992188 217.074219 270.992188 216.945313 270.992188 C 216.945313 270.863281 216.945313 270.730469 216.945313 270.644531 C 216.550781 270.425781 216.246094 270.25 216.113281 269.8125 C 215.371094 269.769531 214.671875 269.726563 213.972656 269.726563 C 212.964844 270.253906 212.089844 270.644531 211.042969 270.996094 C 211.042969 271.085938 211.042969 271.171875 211.042969 271.300781 C 209.382813 271.871094 209.382813 271.871094 208.726563 271.960938 C 208.683594 272.046875 208.636719 272.175781 208.597656 272.308594 C 207.9375 272.4375 207.285156 272.570313 206.628906 272.703125 C 206.539063 272.789063 206.496094 272.878906 206.453125 272.964844 C 205.492188 272.921875 204.574219 272.878906 203.65625 272.878906 C 203.523438 272.835938 203.4375 272.789063 203.347656 272.789063 C 203.347656 272.660156 203.347656 272.527344 203.347656 272.441406 C 202.605469 272.3125 201.90625 272.222656 201.207031 272.136719 C 200.945313 271.699219 199.9375 271.042969 199.414063 271 C 199.414063 270.867188 199.414063 270.734375 199.414063 270.648438 C 199.28125 270.648438 199.152344 270.648438 199.0625 270.648438 C 199.0625 270.519531 199.0625 270.433594 199.0625 270.34375 C 198.453125 270.34375 198.144531 269.6875 197.578125 269.515625 C 196.351563 269.515625 195.609375 269.777344 194.648438 270.652344 C 194.429688 270.695313 194.210938 270.738281 193.992188 270.828125 C 193.992188 270.914063 193.992188 271.003906 193.992188 271.132813 C 193.164063 271.570313 193.164063 271.570313 192.332031 271.789063 C 192.332031 271.878906 192.332031 272.007813 192.332031 272.140625 C 191.980469 272.140625 191.675781 272.140625 191.371094 272.140625 C 191.371094 272.226563 191.371094 272.3125 191.371094 272.445313 C 190.757813 272.53125 190.148438 272.664063 189.578125 272.796875 C 189.578125 272.882813 189.578125 272.972656 189.578125 273.101563 C 186.605469 273.144531 183.632813 273.496094 180.703125 272.796875 "/>
<path style=" stroke:none;fill-rule:evenodd;fill:rgb(100%,100%,100%);fill-opacity:1;" d="M 304.828125 251.675781 C 307.285156 251.523438 309.410156 253.402344 309.5625 255.859375 C 309.71875 258.3125 307.839844 260.441406 305.382813 260.59375 C 302.925781 260.746094 300.800781 258.871094 300.644531 256.414063 C 300.492188 253.957031 302.371094 251.828125 304.828125 251.675781 "/>
<path style=" stroke:none;fill-rule:evenodd;fill:rgb(100%,100%,100%);fill-opacity:1;" d="M 212.378906 240.765625 C 214.835938 240.613281 216.964844 242.488281 217.117188 244.945313 C 217.269531 247.402344 215.390625 249.53125 212.933594 249.683594 C 210.480469 249.835938 208.351563 247.957031 208.195313 245.503906 C 208.042969 243.046875 209.921875 240.917969 212.378906 240.765625 "/>
<path style=" stroke:none;fill-rule:evenodd;fill:rgb(100%,100%,100%);fill-opacity:1;" d="M 299.4375 262.4375 C 301.894531 262.285156 304.023438 264.164063 304.175781 266.621094 C 304.328125 269.074219 302.449219 271.203125 299.992188 271.355469 C 297.539063 271.511719 295.410156 269.632813 295.257813 267.175781 C 295.101563 264.71875 296.980469 262.59375 299.4375 262.4375 "/>
<path style=" stroke:none;fill-rule:evenodd;fill:rgb(100%,100%,100%);fill-opacity:1;" d="M 151.796875 229.078125 C 154.253906 228.925781 156.378906 230.804688 156.53125 233.261719 C 156.6875 235.71875 154.808594 237.84375 152.351563 237.996094 C 149.894531 238.152344 147.769531 236.273438 147.613281 233.816406 C 147.460938 231.359375 149.339844 229.234375 151.796875 229.078125 "/>
<path style=" stroke:none;fill-rule:evenodd;fill:rgb(100%,100%,100%);fill-opacity:1;" d="M 293.3125 252.1875 C 295.769531 252.035156 297.898438 253.914063 298.050781 256.367188 C 298.203125 258.824219 296.324219 260.953125 293.871094 261.105469 C 291.414063 261.261719 289.285156 259.382813 289.132813 256.925781 C 288.980469 254.46875 290.855469 252.339844 293.3125 252.1875 "/>
<path style=" stroke:none;fill-rule:evenodd;fill:rgb(100%,100%,100%);fill-opacity:1;" d="M 200.867188 241.277344 C 203.320313 241.121094 205.449219 243.003906 205.601563 245.457031 C 205.757813 247.914063 203.878906 250.042969 201.421875 250.195313 C 198.964844 250.347656 196.835938 248.46875 196.683594 246.015625 C 196.53125 243.558594 198.410156 241.429688 200.867188 241.277344 "/>
</g>
</svg>
