<?xml version="1.0" encoding="utf-8"?>
<!-- Generator: Adobe Illustrator 19.0.0, SVG Export Plug-In . SVG Version: 6.00 Build 0)  -->
<svg version="1.1" id="Layer_1" xmlns="http://www.w3.org/2000/svg" xmlns:xlink="http://www.w3.org/1999/xlink" x="0px" y="0px"
	 viewBox="0 0 500 500" style="enable-background:new 0 0 500 500;" xml:space="preserve">
<style type="text/css">
	.st0{fill:#00B04F;}
</style>
<g id="XMLID_2_">
	<path id="XMLID_4_" d="M432.5,295.6v10.6h-11.1c-8.9,0-15.6-9.7-15.6-17.2v-38.3h-9v-9h9v-17.2h10.6v17.2h15.9v9h-15.9v33.4
		c-0.1,6.3,2.1,11.4,7.4,11.4H432.5z"/>
	<polygon id="XMLID_8_" class="st0" points="275.9,306.2 275.9,193.4 287.3,193.4 287.3,268.5 360.6,193 376.9,193 299.1,273.2 
		331.9,306.3 315.2,306.3 287.3,277.2 287.3,306.2 	"/>
	<path id="XMLID_11_" d="M360.8,273h29.8c0.8-22-12.9-33.2-29.9-33.2v0.2h0c-16.7,0-29.9,13.9-30.2,33.5c-0.3,16,7.2,32.5,30.2,33.5
		h0.3c10.3,0,17.1-3.1,21.6-7.9l-4.7-8c-5.2,4.8-11.4,6.9-17.2,5.9h-0.1c-10.4-2-20.5-8-20.7-24H360.8L360.8,273z M342.6,263.6
		c0-4.2,2.8-7.9,6-10.6c3.2-2.7,7.4-4.3,12.3-4.3c5.4,0,9.6,1.7,12.8,4.4c3.1,2.7,5.1,6.8,5.8,10.8h-18.6h0h-18.1V263.6z"/>
	<path id="XMLID_12_" d="M264.9,248.3l-5.9,8c-4.6-4.5-10.8-7.3-17-7.3c-11.9,0-19.3,10.8-19.3,23.7c0,12.9,5.3,24.1,18.5,24.1
		c8,0,14.4-3,18.7-7.7l4.8,9.9c-6.4,4.4-15,7.1-25.1,7.1c-20.5,0-28.8-15.6-28.8-33.4s11.5-32.7,30.3-32.7
		C249.7,240,258.1,243.3,264.9,248.3z"/>
	<path id="XMLID_13_" d="M196,218.1c4,0,7.1,3.1,7.1,7.1c0,3.9-3.1,7.1-7.1,7.1c-3.9,0-7.1-3.2-7.1-7.1
		C188.9,221.2,192.1,218.1,196,218.1z"/>
	<polygon id="XMLID_14_" points="200.4,242.6 200.4,306.3 190.6,306.3 190.6,252 181.8,252 181.8,242.6 	"/>
	<path id="XMLID_15_" d="M171.7,242.1v9h-7.9c-7.3,0-12,5.4-15.9,14.6v40.7h-10.5V252h-8.1v-9.4h18.6v10
		C154.3,244,161.6,240.3,171.7,242.1z"/>
	<path id="XMLID_16_" d="M121.6,248.3l-5.9,8c-4.6-4.5-10.7-7.3-17-7.3c-11.9,0-19.3,10.8-19.3,23.7c0,12.9,5.3,24.1,18.4,24.1
		c8.1,0,14.5-3,18.8-7.7l4.8,9.9c-6.4,4.4-15,7.1-25.1,7.1c-20.5,0-28.8-15.6-28.8-33.4S79,240,97.8,240
		C106.3,240,114.8,243.3,121.6,248.3z"/>
</g>
</svg>
